<svg width="112" height="34" viewBox="0 0 112 34" fill="none" xmlns="http://www.w3.org/2000/svg">
<path d="M29.6399 34H0.0719377V27.136H10.5839V7.264H0.0719377V0.399998H29.6399V7.264H19.1279V27.136H29.6399V34ZM36.2384 34V0.399998H53.1824C57.5344 0.399998 61.2624 1.136 64.3664 2.608C67.4704 4.048 69.8224 6.032 71.4224 8.56C73.0224 11.088 73.8224 13.968 73.8224 17.2C73.8224 20.432 73.0224 23.312 71.4224 25.84C69.8224 28.368 67.4704 30.368 64.3664 31.84C61.2624 33.28 57.5344 34 53.1824 34H36.2384ZM53.1824 27.04C55.7424 27.04 57.9344 26.624 59.7584 25.792C61.5824 24.928 62.9584 23.76 63.8864 22.288C64.8144 20.784 65.2784 19.088 65.2784 17.2C65.2784 15.312 64.8144 13.632 63.8864 12.16C62.9584 10.656 61.5824 9.488 59.7584 8.656C57.9344 7.792 55.7424 7.36 53.1824 7.36H44.7824V27.04H53.1824ZM97.2487 34H88.7047V7.504H74.8807V0.399998H111.073V7.504H97.2487V34Z" fill="#1C1C1C"/>
</svg>
